<svg xmlns="http://www.w3.org/2000/svg" viewBox="0 0 323.3 71.08"><defs><style>.cls-1{fill:#fff;}</style></defs><g id="Layer_2" data-name="Layer 2"><g id="Layer_1-2" data-name="Layer 1"><path class="cls-1" d="M5.06,2.55C7.19,1.09,9.69-.18,12.35,0a36,36,0,0,1-4,4.51A18.66,18.66,0,0,0,4.64,9.17a3.61,3.61,0,0,0,.14,3.7,4.41,4.41,0,0,0,2.47,1.79,31.26,31.26,0,0,0,3.49,0c3.31-.34,6.26-2,9.32-3.19a17.44,17.44,0,0,1,6.53-1.34c.9,0,1.79,0,2.69,0a1.51,1.51,0,0,1,1.39,1.08,3.12,3.12,0,0,1-.56,2.95,17.74,17.74,0,0,1-4.19,3.48c-2.32,1.54-5.19,1.51-7.84,1.91-2.1.1-4.21.12-6.31,0a50.8,50.8,0,0,1-5.72-1.28,14,14,0,0,1-3.64-1.56C1.31,16,1,14.63.38,13.5A4.92,4.92,0,0,1,0,10.84,4.72,4.72,0,0,1,.58,9.13,22.23,22.23,0,0,1,2.2,5.63,10.51,10.51,0,0,1,5.06,2.55Z"/><path class="cls-1" d="M56.57.2C58,.13,59.24,1,60.41,1.72a23.45,23.45,0,0,1,6.1,5.86,5.06,5.06,0,0,1,1.17,3.07c0,1.28.06,2.57-.06,3.85-.41,1.58-1.87,2.6-3.25,3.31a19.06,19.06,0,0,1-9,1.83,54.89,54.89,0,0,1-8.11-.29,25,25,0,0,1-8-2.24,5.46,5.46,0,0,1-3-3.25,2.92,2.92,0,0,1,.46-2.69,5.21,5.21,0,0,1,4-1.41c1.5.06,3.07-.2,4.49.42,3.06,1.27,5.77,3.31,9,4.24a13.08,13.08,0,0,0,3.85.28,4.71,4.71,0,0,0,2.63-.37,3.05,3.05,0,0,0,1.59-2.62c0-1.34.21-2.75-.39-4C60.74,4.81,58.15,2.85,56.57.2Z"/><path class="cls-1" d="M42,20.48c3.23-.08,6.47,0,9.71,0a6.55,6.55,0,0,1,5,1.95,5.93,5.93,0,0,1-1.91,1.37c-2.93,1.39-6.06,2.31-9.09,3.44a10,10,0,0,0-2.12.93c0,1.85.1,3.71,0,5.56-.56,4.7-2,9.22-3.11,13.82-.37,1.43-.38,2.92-.65,4.37a3.69,3.69,0,0,1-1-2.91c.09-2-.26-4.08.41-6,.85-2.91,2.57-5.69,2.32-8.83-.09-1.81-1.89-3.08-1.72-4.94,0-.44-.11-1,.29-1.31C41.18,27,42.7,27,43.8,26.21a2.3,2.3,0,0,0,.43-2.58c-.4-1.28-1.93-1.82-2.22-3.15Z"/><path class="cls-1" d="M18.43,22.13c1.34-.07,2.64-.47,4-.52a32.45,32.45,0,0,0-.2,5.66c.1.48.37,1.07.93,1.13,1.33.14,2.78-.26,4,.5a15.24,15.24,0,0,1-1.45,5.72,4.76,4.76,0,0,0-.42,2c.49,3.56.85,7.13,1.3,10.69a9.32,9.32,0,0,1,.12,2.47,3.18,3.18,0,0,1-1-1.56,42.82,42.82,0,0,1-1-7.66c-.06-2.05-.27-4.1-.49-6.15A7.08,7.08,0,0,0,23,30.89a6.12,6.12,0,0,0-3-1.67c-3-.83-6.16-.77-9.08-1.84A6.22,6.22,0,0,1,7.72,25,22.2,22.2,0,0,1,11,23.41a42.57,42.57,0,0,1,7.44-1.28Z"/><path class="cls-1" d="M26.06,52.93a3.69,3.69,0,0,1,3.68,1.62A12.82,12.82,0,0,1,29.79,57c-.5.41-1,.79-1.55,1.15a2.55,2.55,0,0,0,1.64,1.38c1.13-.28,1.94-1.28,3.12-1.42a3.33,3.33,0,0,1,1.37,0c.88.49,1.29,1.51,2.19,2,.45.16.76-.28,1-.62.69-1.26.83-2.77,1.66-4a3.63,3.63,0,0,1,1.27-1.06,13.45,13.45,0,0,1-1.08,7.09,6.08,6.08,0,0,1-3.72,3,6.86,6.86,0,0,1-3.48.37,12.85,12.85,0,0,1-5.88-3.74c-.7-.84-.39-2-.4-3a42.77,42.77,0,0,0,.17-5.31Z"/><path class="cls-1" d="M90.6,50.47a12.35,12.35,0,0,0,4.23-.67A12.8,12.8,0,0,0,98.18,48a14.71,14.71,0,0,0,2.64-2.59c.77-1,1.48-2,2.13-3l-1.88,8.7H72.84A6.18,6.18,0,0,0,74,50.62a3.1,3.1,0,0,0,1-1,6.18,6.18,0,0,0,.7-1.61,9.29,9.29,0,0,0,.27-2.44V13.85a8.68,8.68,0,0,0-.27-2.35A5.25,5.25,0,0,0,75,10a3.35,3.35,0,0,0-1-.91,7,7,0,0,0-1.12-.52h11.5a7,7,0,0,0-1.13.52,3.32,3.32,0,0,0-1,.91,4.77,4.77,0,0,0-.7,1.52,8.64,8.64,0,0,0-.28,2.35V50.47Zm35.1-.06a16.92,16.92,0,0,0,5.81-.91,16.36,16.36,0,0,0,4.14-2.16,13.71,13.71,0,0,0,2.65-2.5,17,17,0,0,0,1.34-1.91l-2,8.21H109a6.18,6.18,0,0,0,1.12-.52,3,3,0,0,0,1-1,5.58,5.58,0,0,0,.7-1.61,8.85,8.85,0,0,0,.28-2.44V13.85a8.26,8.26,0,0,0-.28-2.35,4.77,4.77,0,0,0-.7-1.52,3.2,3.2,0,0,0-1-.91A7,7,0,0,0,109,8.55h28l1.76,8.16c-.24-.45-.63-1.09-1.18-1.92a11.09,11.09,0,0,0-2.34-2.46,14.49,14.49,0,0,0-3.84-2.13,15.18,15.18,0,0,0-5.59-.92h-8.4V29.12h5.42a7.76,7.76,0,0,0,4.77-1.28,6.3,6.3,0,0,0,2.28-3.23v9.56A5.85,5.85,0,0,0,127.62,31a8.2,8.2,0,0,0-4.77-1.18h-5.42V50.41ZM195,45.66a9,9,0,0,0,.27,2.38,5.33,5.33,0,0,0,.73,1.61,3.36,3.36,0,0,0,1,1,6.26,6.26,0,0,0,1.13.52h-11.5a6.26,6.26,0,0,0,1.13-.52,3.36,3.36,0,0,0,1-1,5.1,5.1,0,0,0,.73-1.61,9,9,0,0,0,.27-2.38V11.9L173,51.08l-19.28-39V44.75a6.09,6.09,0,0,0,.58,2.83,6.32,6.32,0,0,0,1.37,1.85,6.11,6.11,0,0,0,1.64,1.13,14.31,14.31,0,0,0,1.4.58H148.21a14.31,14.31,0,0,0,1.4-.58,5.68,5.68,0,0,0,1.61-1.13,6.19,6.19,0,0,0,1.31-1.85,6.37,6.37,0,0,0,.55-2.83V14.33a4.76,4.76,0,0,0-.55-2.34,6.26,6.26,0,0,0-1.31-1.7,6.91,6.91,0,0,0-1.61-1.13,13.31,13.31,0,0,0-1.4-.61h9.62l17.52,35.29L190.43,8.55h7.73a7,7,0,0,0-1.13.52,3.67,3.67,0,0,0-1,.91,4.58,4.58,0,0,0-.73,1.52,8.68,8.68,0,0,0-.27,2.35V45.66Zm43.92.49a8.77,8.77,0,0,0,.91,2A8.39,8.39,0,0,0,241,49.56a7.56,7.56,0,0,0,1.28,1,5.8,5.8,0,0,0,1.18.58H231a3.53,3.53,0,0,0,1.12-.67,4,4,0,0,0,1-1.19,4.26,4.26,0,0,0,.45-1.52,3.74,3.74,0,0,0-.21-1.67l-4.32-11.38H214.58l-3.83,9.8a6.74,6.74,0,0,0-.52,3,4.08,4.08,0,0,0,.7,1.91,3.81,3.81,0,0,0,1.34,1.13,11.53,11.53,0,0,0,1.34.58H204.3a6.59,6.59,0,0,0,1.22-.58,9.39,9.39,0,0,0,1.34-1,9.72,9.72,0,0,0,1.31-1.43,10.15,10.15,0,0,0,1.12-1.95L224.07,8l14.85,38.14ZM228.58,34,221.7,16.16,214.77,34Zm38.75,16.43a12.35,12.35,0,0,0,4.23-.67A12.74,12.74,0,0,0,274.9,48a14.45,14.45,0,0,0,2.65-2.59c.77-1,1.48-2,2.13-3l-1.89,8.7H249.56a6.26,6.26,0,0,0,1.13-.52,3,3,0,0,0,1-1,5.58,5.58,0,0,0,.7-1.61,8.85,8.85,0,0,0,.28-2.44V13.85a8.26,8.26,0,0,0-.28-2.35,4.77,4.77,0,0,0-.7-1.52,3.2,3.2,0,0,0-1-.91,7,7,0,0,0-1.13-.52h11.5a7,7,0,0,0-1.12.52,3.35,3.35,0,0,0-1,.91,5.25,5.25,0,0,0-.7,1.52,8.68,8.68,0,0,0-.27,2.35V50.47Zm51.4-4.32a8.79,8.79,0,0,0,.92,2,8.35,8.35,0,0,0,1.18,1.46,8,8,0,0,0,1.28,1,5.86,5.86,0,0,0,1.19.58H310.76a3.57,3.57,0,0,0,1.13-.67,3.93,3.93,0,0,0,.94-1.19,4.08,4.08,0,0,0,.46-1.52,3.74,3.74,0,0,0-.21-1.67l-4.32-11.38H294.4l-3.83,9.8a6.6,6.6,0,0,0-.52,3,3.88,3.88,0,0,0,.7,1.91,3.64,3.64,0,0,0,1.34,1.13,10.23,10.23,0,0,0,1.34.58h-9.31a6.9,6.9,0,0,0,1.22-.58,9.33,9.33,0,0,0,1.33-1A8.73,8.73,0,0,0,288,48.16a10.18,10.18,0,0,0,1.13-1.95L303.89,8l14.84,38.14ZM308.39,34l-6.87-17.88L294.58,34Z"/><path class="cls-1" d="M72.84,71h.45a.73.73,0,0,0,.41-.12.76.76,0,0,0,.27-.32l.57-1.32h4.08l.58,1.32a.76.76,0,0,0,.27.32.7.7,0,0,0,.4.12h.46L80,70.34c-.11-.27-.25-.58-.39-.92s-.31-.7-.48-1.09l-.51-1.18c-.18-.39-.35-.79-.52-1.17s-.33-.75-.47-1.09-.29-.65-.4-.92-.22-.48-.29-.65h-.8L72.84,71Zm3.64-6.2a.34.34,0,0,0,0-.12l0-.12a.74.74,0,0,0,0-.12.34.34,0,0,0,0-.09s0,.11,0,.2a.91.91,0,0,0,.07.25l1.56,3.57H74.92l1.56-3.57Zm9.36-1.47H85V68a3,3,0,0,0,.24,1.19,3.14,3.14,0,0,0,1.63,1.63,3,3,0,0,0,3.35-.66,3.09,3.09,0,0,0,.66-1A3,3,0,0,0,91.1,68v-4.7h-.87V68a2.19,2.19,0,0,1-.17.85,2.27,2.27,0,0,1-.47.7,2.1,2.1,0,0,1-.7.47,2.19,2.19,0,0,1-.85.17,2.27,2.27,0,0,1-.86-.17,2.06,2.06,0,0,1-.69-.47,2.29,2.29,0,0,1-.48-.7,2.19,2.19,0,0,1-.17-.85v-4.7Zm12.76.87V71h.86v-6.8h2.46v-.87H96.15v.87Zm14.56-.87h-.87V66.7H108V63.32h-.86V71H108V67.56h4.32V71h.87V63.32Zm10.78,6.8h-3.78V67.55h3.06v-.86h-3.06v-2.5h3.78v-.87h-4.65V71h4.65v-.87Zm11.92-6.8H135v6.3l-.05-.21a1,1,0,0,0-.12-.23l-4-5.59a.75.75,0,0,0-.65-.27h-.61V71h.86V64.33a.7.7,0,0,0,0,.14.49.49,0,0,0,0,.11l.06.11,4.5,6.3h.77V63.32Zm7.8.87V71h.86v-6.8H147v-.87H141.2v.87Zm9.56-.87h-.86V71h.86V63.32Zm7,2.64a3,3,0,0,1,1.62-1.62A3,3,0,0,1,163,64.1a3.12,3.12,0,0,1,.93.14,3.4,3.4,0,0,1,.81.4.7.7,0,0,0,.39.13.6.6,0,0,0,.3-.07.78.78,0,0,0,.24-.16l.12-.13a4,4,0,0,0-1.24-.86,3.8,3.8,0,0,0-1.55-.31,4,4,0,0,0-1,.13,4.28,4.28,0,0,0-.93.4,4.34,4.34,0,0,0-.8.61,4.27,4.27,0,0,0-.61.79,4.06,4.06,0,0,0-.39.94,3.58,3.58,0,0,0-.14,1,3.94,3.94,0,0,0,.3,1.53,4.12,4.12,0,0,0,.84,1.24,3.82,3.82,0,0,0,1.25.84,3.69,3.69,0,0,0,1.52.31,3.8,3.8,0,0,0,1.55-.31,3.86,3.86,0,0,0,1.24-.87l-.12-.12a.78.78,0,0,0-.24-.16.67.67,0,0,0-.3-.06.77.77,0,0,0-.39.11,3.4,3.4,0,0,1-.81.4,2.83,2.83,0,0,1-.93.14,3.1,3.1,0,0,1-.81-.1,3.64,3.64,0,0,1-.73-.31,3.13,3.13,0,0,1-.62-.48,2.89,2.89,0,0,1-.47-.62,2.63,2.63,0,0,1-.31-.73,2.73,2.73,0,0,1-.11-.81,3,3,0,0,1,.24-1.19Zm19.14,0a3.06,3.06,0,0,1,.65-1,3.24,3.24,0,0,1,1-.65,3,3,0,0,1,1.19-.24,3.1,3.1,0,0,1,.92.14,3.29,3.29,0,0,1,.82.4.7.7,0,0,0,.39.13.6.6,0,0,0,.3-.07.78.78,0,0,0,.24-.16l.12-.13a4,4,0,0,0-1.25-.86,3.75,3.75,0,0,0-1.54-.31,4,4,0,0,0-1,.13,4.36,4.36,0,0,0-.94.4,4.27,4.27,0,0,0-.79.61,3.88,3.88,0,0,0-.61.79,4.58,4.58,0,0,0-.4.94,3.93,3.93,0,0,0,.17,2.57,4.12,4.12,0,0,0,.84,1.24,3.89,3.89,0,0,0,1.24.84,4,4,0,0,0,3.07,0,3.91,3.91,0,0,0,1.25-.87l-.12-.12a.78.78,0,0,0-.24-.16.73.73,0,0,0-.3-.06.77.77,0,0,0-.39.11,3.29,3.29,0,0,1-.82.4,2.81,2.81,0,0,1-.92.14,3.1,3.1,0,0,1-.81-.1,3.41,3.41,0,0,1-.73-.31,2.86,2.86,0,0,1-.62-.48,2.64,2.64,0,0,1-.48-.62,3.41,3.41,0,0,1-.31-.73,3.1,3.1,0,0,1-.1-.81,3,3,0,0,1,.24-1.19Zm10,5h.45a.73.73,0,0,0,.41-.12.76.76,0,0,0,.27-.32l.57-1.32h4.07l.59,1.32a.76.76,0,0,0,.27.32.7.7,0,0,0,.4.12h.45l-.28-.65c-.12-.27-.25-.58-.39-.92s-.31-.7-.48-1.09l-.51-1.18c-.18-.39-.35-.79-.52-1.17l-.48-1.09c-.14-.34-.28-.65-.39-.92s-.22-.48-.29-.65h-.8L189.31,71Zm3.64-6.2a.83.83,0,0,0,0-.12l0-.12a.74.74,0,0,0,0-.12.34.34,0,0,0,0-.09,1,1,0,0,0,0,.2.91.91,0,0,0,.07.25l1.56,3.57h-3.32L193,64.79Zm17-1.47h-.69a.72.72,0,0,0-.4.12.71.71,0,0,0-.27.32l-2.38,5.41c-.06.14-.13.28-.19.43a1.16,1.16,0,0,0-.12.45.52.52,0,0,0,0-.18c0-.06,0-.12,0-.17l-2.61-5.94a.7.7,0,0,0-.26-.31.71.71,0,0,0-.41-.13h-.68V71h.86V64.66l0,.17a.78.78,0,0,0,.05.18c.45,1,.89,2,1.32,3s.86,2,1.31,3h.9c.2-.46.41-.91.61-1.37l.63-1.43.66-1.52c.24-.52.48-1.08.74-1.66l0-.1,0-.12a.58.58,0,0,0,0-.1.18.18,0,0,0,0-.06V71h.87V63.32ZM217,68.05h1.84a2.2,2.2,0,0,0,.92-.19,2.29,2.29,0,0,0,.75-.5,2.17,2.17,0,0,0,.51-.75,2.23,2.23,0,0,0,.19-.92,2.2,2.2,0,0,0-.19-.92,2.42,2.42,0,0,0-1.26-1.26,2.2,2.2,0,0,0-.92-.19h-2.7V71H217V68.05Zm0-.86v-3h1.84a1.45,1.45,0,0,1,.59.12,1.39,1.39,0,0,1,.48.32,1.38,1.38,0,0,1,.31.47,1.45,1.45,0,0,1,.12.59,1.4,1.4,0,0,1-.12.58,1.42,1.42,0,0,1-.31.48,1.55,1.55,0,0,1-.48.32,1.45,1.45,0,0,1-.59.12Zm12.9-2.61a.65.65,0,0,0,.44-.15l.22-.16a4,4,0,0,0-.36-.35,2.22,2.22,0,0,0-.45-.34,2.69,2.69,0,0,0-.54-.25,2.06,2.06,0,0,0-.62-.09,2.37,2.37,0,0,0-1.53.53,1.94,1.94,0,0,0-.52.62,1.75,1.75,0,0,0-.19.83,1.83,1.83,0,0,0,.16.83,1.74,1.74,0,0,0,.44.56,3,3,0,0,0,.66.38l.8.33.61.23a2.53,2.53,0,0,1,.52.26,1.1,1.1,0,0,1,.35.39,1.16,1.16,0,0,1,.14.6,1.12,1.12,0,0,1-.16.62,1.3,1.3,0,0,1-.4.44,1.69,1.69,0,0,1-.54.26,2.46,2.46,0,0,1-.59.08,2.19,2.19,0,0,1-.63-.1,1.71,1.71,0,0,1-.6-.39.72.72,0,0,0-.52-.21.69.69,0,0,0-.2,0,.76.76,0,0,0-.18.09l-.17.09.21.34a2.06,2.06,0,0,0,.38.41,2.52,2.52,0,0,0,1.71.61,3.13,3.13,0,0,0,1-.16,2.63,2.63,0,0,0,.82-.46,2.16,2.16,0,0,0,.55-.72,2,2,0,0,0,.21-.93,2.25,2.25,0,0,0-.18-.92,1.77,1.77,0,0,0-.56-.72,1.94,1.94,0,0,0-.33-.2l-.34-.17-.38-.15-.41-.15-.7-.26a2.06,2.06,0,0,1-.45-.25.76.76,0,0,1-.25-.32,1,1,0,0,1-.08-.44.92.92,0,0,1,.11-.43,1.31,1.31,0,0,1,.3-.36,1.67,1.67,0,0,1,.44-.23,1.6,1.6,0,0,1,.53-.09,1.12,1.12,0,0,1,.27,0l.23.07a1.32,1.32,0,0,1,.2.12l.22.14a.77.77,0,0,0,.39.11ZM245.33,66a1.49,1.49,0,0,1-.13-.25,1.17,1.17,0,0,1-.09-.24.88.88,0,0,1,0-.21,1.09,1.09,0,0,1,.1-.48,1.38,1.38,0,0,1,.26-.4,1.46,1.46,0,0,1,.38-.27,1.2,1.2,0,0,1,.45-.09,1.8,1.8,0,0,1,.43,0,1,1,0,0,1,.33.13l.15.1a1.83,1.83,0,0,0,.22.13.9.9,0,0,0,.37.07,1,1,0,0,0,.23,0l.25-.08.19-.07a2.82,2.82,0,0,0-.95-.84,2.57,2.57,0,0,0-1.19-.28,2.07,2.07,0,0,0-.77.15,1.93,1.93,0,0,0-.66.43,2.18,2.18,0,0,0-.46.65,2,2,0,0,0-.17.84,1.92,1.92,0,0,0,.18.82,2.38,2.38,0,0,0,.48.69l-.14-.08a.58.58,0,0,0-.18,0h-.06a.09.09,0,0,0-.06,0,2.55,2.55,0,0,0-.5.41,2.37,2.37,0,0,0-.36.49,2.24,2.24,0,0,0-.23.53,2.08,2.08,0,0,0-.07.55v0a2,2,0,0,0,.21.92,2.31,2.31,0,0,0,.54.73,2.64,2.64,0,0,0,.8.5,2.55,2.55,0,0,0,1,.18,2.77,2.77,0,0,0,1.2-.27,3.89,3.89,0,0,0,1.11-.8l.53.53a1.41,1.41,0,0,0,.24.2,1,1,0,0,0,.25.15l.32.08a3,3,0,0,0,.45,0h.41l-1.66-1.64,1.44-1.94h-.52a1,1,0,0,0-.58.17,1.64,1.64,0,0,0-.43.44l-.54.71-.59-.59-1-1-.95-1a2,2,0,0,1-.19-.22Zm2.17,3.38a3.25,3.25,0,0,1-.83.63,2,2,0,0,1-.87.2,1.68,1.68,0,0,1-.63-.12,1.57,1.57,0,0,1-.53-.31,1.51,1.51,0,0,1-.36-.47,1.33,1.33,0,0,1-.14-.6,1.38,1.38,0,0,1,.1-.49,1.79,1.79,0,0,1,.25-.42,2,2,0,0,1,.38-.33,2.32,2.32,0,0,1,.47-.24l1.36,1.35.8.8ZM267,71v-.87h-3.42v-6.8h-.86V71Zm4.5-2.31a4.12,4.12,0,0,0,.84,1.24,3.89,3.89,0,0,0,1.24.84,3.92,3.92,0,0,0,5.45-3.61,4,4,0,0,0-.14-1,3.7,3.7,0,0,0-.4-.94,3.88,3.88,0,0,0-.61-.79,4.27,4.27,0,0,0-.79-.61,4.16,4.16,0,0,0-.94-.4,4.22,4.22,0,0,0-2.08,0,4.36,4.36,0,0,0-.94.4,4.27,4.27,0,0,0-.79.61,3.88,3.88,0,0,0-.61.79,4.58,4.58,0,0,0-.4.94,3.93,3.93,0,0,0,.17,2.57Zm.8-2.72a3.06,3.06,0,0,1,.65-1,3.24,3.24,0,0,1,1-.65,3.07,3.07,0,0,1,2.38,0,3.12,3.12,0,0,1,1,.65,3.24,3.24,0,0,1,.65,1,3,3,0,0,1,.24,1.19,2.73,2.73,0,0,1-.11.81,2.93,2.93,0,0,1-.78,1.35,2.86,2.86,0,0,1-.62.48,3.41,3.41,0,0,1-.73.31,3.33,3.33,0,0,1-1.62,0,3.41,3.41,0,0,1-.73-.31,2.86,2.86,0,0,1-.62-.48,2.64,2.64,0,0,1-.48-.62,3.41,3.41,0,0,1-.31-.73,3.1,3.1,0,0,1-.11-.81,3,3,0,0,1,.25-1.19Zm15.06,5a3.86,3.86,0,0,0,1-.14,3.68,3.68,0,0,0,.91-.39,4,4,0,0,0,.78-.59,4.5,4.5,0,0,0,.6-.78,4.09,4.09,0,0,0,.39-.91,3.86,3.86,0,0,0,.13-1,3.75,3.75,0,0,0-.13-1,4.17,4.17,0,0,0-.39-.92,4.08,4.08,0,0,0-.6-.77,3.95,3.95,0,0,0-1.69-1,3.86,3.86,0,0,0-1-.14h-2.85V71Zm-2-.87V64.19h2a3,3,0,0,1,1.15.23,3,3,0,0,1,.95.64,3.07,3.07,0,0,1,.64.94,3,3,0,0,1,.23,1.16,3,3,0,0,1-.23,1.15,3.12,3.12,0,0,1-.64,1,3,3,0,0,1-.95.63,2.78,2.78,0,0,1-1.15.23Zm15.46-2.93v.13a.72.72,0,0,0,.06.29.79.79,0,0,0,.14.23.73.73,0,0,0,.23.16.75.75,0,0,0,.31.06h.55v1.62a2.84,2.84,0,0,1-.89.39,3.71,3.71,0,0,1-1,.13,3.12,3.12,0,0,1-.82-.1,3.73,3.73,0,0,1-.74-.31,2.92,2.92,0,0,1-.63-.48,3,3,0,0,1-.49-.62,2.66,2.66,0,0,1-.32-.73,3.1,3.1,0,0,1-.11-.81,3,3,0,0,1,.24-1.19A3,3,0,0,1,299,64.34a3,3,0,0,1,1.19-.24,3.17,3.17,0,0,1,.93.14,3.4,3.4,0,0,1,.81.4.7.7,0,0,0,.39.13.54.54,0,0,0,.19,0,.61.61,0,0,0,.17-.07.72.72,0,0,0,.15-.11,2.11,2.11,0,0,0,.15-.15,3.93,3.93,0,0,0-1.25-.86,3.75,3.75,0,0,0-1.54-.31,4,4,0,0,0-1,.13,4.28,4.28,0,0,0-.93.4,4,4,0,0,0-.8.61,3.88,3.88,0,0,0-.61.79,4.09,4.09,0,0,0-.4.94,3.93,3.93,0,0,0,0,2.08,4,4,0,0,0,1,1.73,3.68,3.68,0,0,0,.8.61,4.28,4.28,0,0,0,.93.4,4,4,0,0,0,1,.14c.27,0,.53,0,.79,0a5.86,5.86,0,0,0,.75-.13,3.09,3.09,0,0,0,.68-.26,2.21,2.21,0,0,0,.58-.42v-3Zm12.56,2.93h-3.79V67.55h3.07v-.86h-3.07v-2.5h3.79v-.87h-4.66V71h4.66v-.87Zm8.89-5.54a.65.65,0,0,0,.44-.15l.21-.16a3.84,3.84,0,0,0-.35-.35,2.22,2.22,0,0,0-.45-.34,3.32,3.32,0,0,0-.54-.25,2.06,2.06,0,0,0-.62-.09,2.54,2.54,0,0,0-.81.13,2.72,2.72,0,0,0-.73.4,2,2,0,0,0-.51.62,1.75,1.75,0,0,0-.19.83,1.83,1.83,0,0,0,.16.83,1.74,1.74,0,0,0,.44.56A3,3,0,0,0,320,67l.8.33.61.23a2.44,2.44,0,0,1,.51.26,1.12,1.12,0,0,1,.36.39,1.16,1.16,0,0,1,.14.6,1.21,1.21,0,0,1-.16.62,1.41,1.41,0,0,1-.4.44,1.69,1.69,0,0,1-.54.26,2.46,2.46,0,0,1-.59.08,2.2,2.2,0,0,1-.64-.1,1.68,1.68,0,0,1-.59-.39.73.73,0,0,0-.52-.21.64.64,0,0,0-.2,0,.76.76,0,0,0-.18.09l-.17.09.21.34a2.06,2.06,0,0,0,.38.41,2.5,2.5,0,0,0,1.71.61,3.13,3.13,0,0,0,1-.16,2.48,2.48,0,0,0,.81-.46,2.19,2.19,0,0,0,.56-.72,2,2,0,0,0,.21-.93,2.25,2.25,0,0,0-.18-.92,1.79,1.79,0,0,0-.57-.72,1.55,1.55,0,0,0-.32-.2,2.85,2.85,0,0,0-.35-.17l-.37-.15-.41-.15-.7-.26A1.85,1.85,0,0,1,320,66a.88.88,0,0,1-.26-.32,1.16,1.16,0,0,1-.07-.44.81.81,0,0,1,.11-.43,1,1,0,0,1,.3-.36,1.53,1.53,0,0,1,.44-.23,1.6,1.6,0,0,1,.53-.09,1.12,1.12,0,0,1,.27,0l.23.07.2.12.22.14a.74.74,0,0,0,.39.11Z"/></g></g></svg>