<?xml version="1.0" encoding="UTF-8"?> <svg xmlns="http://www.w3.org/2000/svg" width="174" height="57" viewBox="0 0 174 57" fill="none"><g clip-path="url(#clip0_5873_7087)"><path d="M35.0088 1.62798C35.0965 0.715257 35.8644 0 36.8034 0C37.7906 0 38.5936 0.798631 38.6023 1.78595C38.7032 2.95757 39.7958 15.525 40.024 17.6181C40.2609 19.8166 41.0068 25.0559 41.9502 30.2646C42.4284 32.8931 43.1129 35.8857 43.7491 38.4571C44.7934 38.6458 45.9606 38.817 47.2637 38.9618C50.5106 39.3216 53.4197 38.3343 55.0081 37.9086C56.6008 37.483 56.6798 38.2904 56.7237 38.5581C56.7675 38.8257 56.8816 39.914 55.6048 40.5854C54.3982 41.2216 50.5194 42.6785 44.7057 42.1695C44.9207 42.9813 45.1049 43.6307 45.2322 44.0563C45.7982 45.9827 47.5884 50.4805 48.0403 51.3581C48.1808 51.617 48.2641 51.9198 48.2641 52.2357C48.2641 53.245 47.4436 54.0655 46.4344 54.0655C45.728 54.0655 45.1137 53.6662 44.8066 53.0782C44.7759 53.03 44.7452 52.9729 44.7232 52.9115C44.2142 51.4897 43.0954 48.3259 41.5816 44.0519C41.3622 43.4332 41.1253 42.5863 40.8796 41.5771C39.5325 41.2831 38.1153 40.8838 36.6278 40.3572C34.4471 39.5805 32.7228 38.6634 31.4503 37.777C31.1081 38.7599 30.8009 39.5542 30.5421 40.0895C28.7519 43.8413 26.2991 49.4624 19.406 52.8808C12.8024 56.1499 2.2675 56.3737 1.38117 56.3912C1.33291 56.3956 1.28026 56.4 1.23199 56.4C0.556279 56.4 0.0078125 55.8515 0.0078125 55.1757C0.0078125 54.5395 0.490463 54.0217 1.10913 53.9558C1.10913 53.9471 10.0777 53.381 16.2293 50.6165C22.2492 47.9135 24.7239 43.7492 26.9134 39.4576C27.554 38.2026 28.1551 36.7458 28.708 35.1749C27.7427 33.8628 27.5145 32.7921 27.5014 32.3753C27.4794 31.445 30.3578 29.7863 30.3578 29.7863C31.8277 24.3319 32.8412 18.7239 33.3327 15.8585C34.1444 11.1238 35.0175 1.62798 35.0175 1.62798M39.9976 37.562C38.4619 29.9487 36.8823 19.3734 36.8823 19.3734C36.8823 19.3734 34.9254 26.7717 33.0782 32.8843C33.5257 33.8365 33.8241 34.2929 34.8859 35.0213C35.7152 35.5873 37.0535 36.658 39.9932 37.562M80.8474 25.7712C80.8474 25.7712 83.2344 24.6215 84.5024 25.2929C86.1434 26.1661 86.297 27.8029 85.9504 28.7595C85.6037 29.7161 82.7693 30.4928 81.7162 28.6629C80.6939 26.8858 80.843 25.7712 80.843 25.7712" fill="#152532"></path><path d="M124.265 30.519C124.265 30.519 126.358 29.501 127.468 30.0977C128.907 30.8656 129.043 32.3093 128.736 33.1562C128.433 33.9987 125.95 34.6833 125.028 33.0729C124.133 31.5063 124.265 30.519 124.265 30.519Z" fill="#152532"></path><path d="M154.993 36.8465C153.554 36.2015 152.163 38.1586 151.136 39.7295C149.675 41.9718 149.271 45.0917 150.688 46.5837C152.909 48.9138 154.681 45.807 155.598 44.0298C156.511 42.2614 156.849 37.6759 154.988 36.8422M81.2042 37.0791L81.349 36.9826C81.3007 37.0133 81.2525 37.044 81.2042 37.0791ZM104.639 33.4195C104.639 33.4195 107.579 26.7364 108.439 21.01C109.299 15.2835 108.549 13.4668 107.772 13.4668C106.995 13.4668 105.403 14.5332 104.924 19.9086C104.446 25.2883 104.639 33.4195 104.639 33.4195ZM68.3174 33.8363C68.3613 33.8319 68.4096 33.8275 68.4578 33.8275C69.2389 33.8275 69.8707 34.4594 69.8707 35.2405C69.8707 35.8987 69.4231 36.4516 68.8176 36.6096L68.7518 36.6227C68.0937 36.7807 62.5388 38.141 62.1263 39.9577C61.8192 41.3092 65.2021 42.494 67.8743 43.6788L68.0235 43.7446C69.5767 43.1566 71.9373 42.2351 73.7933 41.397C76.5006 40.1727 80.4144 37.6057 81.2086 37.0791C81.2569 37.044 81.3051 37.0133 81.3534 36.9826C81.6693 36.7895 82.0379 36.6798 82.4328 36.6798C83.5824 36.6798 84.5126 37.6101 84.5126 38.7597C84.5126 38.9353 84.4906 39.1064 84.4511 39.2688C84.2668 40.1683 82.5556 49.2955 89.1109 49.2955C95.0212 49.2955 101.546 38.3736 101.546 38.3736C101.546 38.3736 101.067 26.4292 101.581 19.8998C102.028 14.2084 104.323 9.18408 108.176 9.18408C111.48 9.18408 112.743 12.8832 112.743 16.9729C112.743 25.2181 105.363 38.7466 105.363 38.7466C105.363 38.7466 106.249 49.2604 113.116 49.2604C119.233 49.2604 124.037 39.1371 126.1 39.1371C129.425 39.1371 130.702 49.3613 136.643 49.3613C141.005 49.3613 146.472 42.257 146.643 41.9499C146.814 41.6427 150.276 32.5989 155.879 33.6345C160.223 34.4375 159.968 41.6778 159.968 41.6778C159.968 41.6778 160.719 41.5067 162.167 42.2921C163.961 43.2663 165.909 49.0761 168.621 49.0761C170.973 49.0761 171.548 48.7646 171.662 48.6812C171.925 48.4837 172.228 48.3784 172.552 48.3784C173.355 48.3784 174.005 49.0279 174.005 49.8309C174.005 50.3179 173.768 50.748 173.399 51.0113C173.079 51.3228 171.881 52.2312 168.797 52.2312C164.369 52.2312 161.798 46.1449 159.938 46.1449C158.687 46.1449 156.59 51.7572 152.601 51.7572C148.613 51.7572 146.652 46.8206 146.652 46.8206C146.652 46.8206 142.018 52.2312 135.63 52.2312C129.241 52.2312 126.433 44.1176 125.591 44.1176C124.748 44.1176 120.452 52.2312 112.813 52.2312C104.665 52.2312 102.467 42.8319 102.467 42.8319C102.467 42.8319 97.0264 52.1609 89.0802 52.1609C79.9537 52.1609 79.9011 42.1517 79.9011 42.1517C79.9011 42.1517 79.3263 42.5905 77.6194 43.319C76.3075 43.8762 72.5121 45.4735 70.8799 46.1581C71.2748 46.8601 71.4722 47.6149 71.5687 48.4047C71.7311 49.7431 70.7746 51.0332 69.5723 52.1917C67.3565 54.3155 63.2189 55.4081 61.2225 53.0386C57.7737 48.9489 64.1315 45.6008 64.1315 45.6008C64.1315 45.6008 57.0322 43.1303 58.3178 39.1415C59.8623 34.3409 67.1327 33.8714 68.3306 33.8275M67.5496 47.6588C67.5496 47.6588 65.7331 48.453 64.8116 49.2824C63.9209 50.081 63.7279 50.5681 63.8639 50.8357C63.9999 51.1078 65.0749 51.608 66.6369 50.6646C68.9361 49.278 67.5496 47.6544 67.5496 47.6544" fill="#152532"></path></g><defs><clipPath id="clip0_5873_7087"><rect width="174" height="56.4" fill="white"></rect></clipPath></defs></svg> 