<svg xmlns="http://www.w3.org/2000/svg" viewBox="0 0 350.8 451.82"><defs><style>.cls-1{fill:#b11a19;}.cls-2{fill:#20373b;}</style></defs><title>logo</title><g id="Layer_2" data-name="Layer 2"><g id="Layer_1-2" data-name="Layer 1"><path class="cls-1" d="M297.8,220.12c3-10.1,6.4-20,9.1-30.1,2.2-8.6,1.8-17.4,1.1-26.3-.7-9.2.6-18.6.5-27.9,0-4.1-1.9-8.3-1.6-12.4a17.9,17.9,0,0,0-2.2-10.6,200.67,200.67,0,0,0-25.4-35.2c-3.6-4-7.3-7.9-10.9-11.9-2.5-2.7-4.6-6-7.7-7.7-9.6-5.3-19.5-10.2-29.5-14.9a92.92,92.92,0,0,0-11.5-4.2c-4.4-1.4-8.9-2.7-13.4-4-6.2-1.8-12.3-4.2-18.6-5.2-5.5-.9-11.3-.4-17-.4-2.1,0-4.3,0-6.4.1-4.5.1-9.1-.6-13.4.4a132,132,0,0,0-20.9,7.1c-5.5,2.3-11.6,4.7-15.5,8.9-6.5,6.7-14.2,11.9-19.7,19.8-7.5,10.8-16.3,20.7-24.2,31.2-8.3,11.1-17.7,21.4-23.6,34.1-3.6,8-7.9,15.9-8,24.9-.1,10.5-.1,20.9.2,31.4a30.2,30.2,0,0,0,2.2,11.2c3.4,7.6,3.8,16.3,9.1,23.1.2.3.2.8.4,1.2a58.17,58.17,0,0,0,2.9,8.3c2.8,5.4,6.2,10.5,9,15.9,5,9.7,11.9,17.9,18.9,26.2,6.5,7.7,15.5,12.1,23.4,17.3,8.8,5.8,19.7,8.5,29.8,12.2,2.9,1.1,6.2.9,9.2,1.6,8.6,2.2,17.1,4.6,25.6,6.7,1.8.4,3.9-.1,5.9-.3,1.7-.1,3.3-.3,5-.4l25.6-3,15-1.8v.1c1.1-.1,2.2-.2,3.3-.4,4.3-.9,8.6-1.7,12.8-2.7a14.42,14.42,0,0,0,4.6-1.9c4.1-2.8,7.8-6,12-8.7,7-4.4,14.8-7.8,20.2-14.2,3.4-4.1,5.8-9.1,8.6-13.7,1.3-2.1,2.6-4.1,3.9-6.2.9-1.5,2.2-2.9,2.7-4.5.8-2.7.8-5.6,1.6-8.3,1.6-5.6,3.5-11.1,5-16.7C296.9,225.62,297.1,222.82,297.8,220.12Zm-9.9-78.3c-1.2,8.1-2.4,16.2-3.7,24.3a97.54,97.54,0,0,1-2.5,13.3c-2.2,7.5-5.6,14.7-7.2,22.4-2.4,11.5-8.9,20.9-13.8,31.1-4.3,9.2-12.1,15.8-20.1,22-4.3,3.3-8.1,7.2-12.4,10.4-9.1,6.7-18.3,13.5-27.9,19.6-3.1,2-7.4,2.1-11.1,2.8-8,1.5-15.9,3.6-24,4.1-3.7.2-7.6-2.7-11.4-4.2-5.2-2.1-11-3.6-15.5-6.7-5.1-3.5-34.5-18.3-41.7-26.4-4-4.5-9.3-8-11-14.3-.3-1-2.4-1.5-2.4-2.7-.1-4.5-3.3-4.8-3-7.3a3.33,3.33,0,0,0,.1-1.4c-1.8-6.3-3.8-12.5-5.5-18.8a31.8,31.8,0,0,1-.4-6.2c0-.9.5-1.9.4-2.7-1.3-7.3-3-14.6-4.1-22-.5-3.4.1-6.9.2-10.4,0-.5.3-.9.2-1.4-1.5-8.5,3.1-16.1,3.9-24.3.6-6.1,5.2-11.7,6.3-17.8.9-5.3,1.9-10,5.3-14.2,1.3-1.6,11-10,13.7-13.5a196.22,196.22,0,0,1,13.8-16.4l39.1-21.8c6.5-.2,12.9-2.5,19.3-3.6a172,172,0,0,1,17.4-2.1,60.36,60.36,0,0,1,32.7,7.9c8.6,4.8,18.1,9,24.7,17.2,2.2,2.7,5.7,4.2,8.3,6.6,8.4,7.8,17.4,15.1,24.6,23.8C287.8,118.52,289.6,130,287.9,141.82Z"/><path class="cls-1" d="M338.5,136.42c.4,1.4.8,2.9,1.3,4.3,1.4,3.7,3.6,7.1,2.3,11.4a3.52,3.52,0,0,0,.2,2.5c7,9.7,2.8,20,1.9,30.2a10.1,10.1,0,0,1-.3,1.7c-.2,1.7,1.9,4.3-1.7,4.6-3.2.3-6.7-2.4-6.7-5.3-.1-8,.2-16-.3-23.9-.2-3-2.4-5.8-3.4-8.8-2.3-7-4.4-14-6.4-21-.7-2.3-2-5.6-1-6.9,1.2-1.6,4.6-1.5,6.9-2.4,3.2-1.2,4.4-.8,4.3,3,0,2.2,1.5,4.5,2.3,6.7C338.5,133.62,338.8,136.32,338.5,136.42Z"/><path class="cls-1" d="M247.5,34.52c-5.4-3-9.9-5.4-14.4-7.9-2.5-1.4-4.9-3-7.5-4.2-6-2.8-12.1-5.4-18.2-7.9a7.69,7.69,0,0,0-3.7-.1c-7.6,1.2-11.5-2.4-10.6-9.9.4-3.6,3.2-5.8,5.8-3.7,4.9,3.9,10.8,2.8,16.1,4.4,8.3,2.4,15.5,6.5,22.5,11.3a25.18,25.18,0,0,0,9.1,3.8c3.2.6,6.5,1.5,6.8,4.6.2,2.4-1.8,5.1-3.2,7.4C249.4,33.52,247.9,34.12,247.5,34.52Z"/><path class="cls-1" d="M320,86.62a76.3,76.3,0,0,1-7.1,5.2c-2.3,1.4-3.6-.5-4.7-2.3-4.1-6.4-7.9-13.1-12.5-19.1-3.6-4.6-5.7-10.7-12.6-12.5-2.5-.7-5-3.4-6.4-5.9-2.3-3.8,2.2-5.6,3.8-8.2.4-.7,3.3-.8,4.3-.1,3.5,2.5,6.7,5.4,10,8.2a26.5,26.5,0,0,1,2.6,2.1c1.6,1.4,4.2,2.5,4.6,4.2,1.1,4.9,5.8,7.5,7.3,11.3,2,5.4,7.3,8,8.9,13.3C318.6,83.82,319.1,84.72,320,86.62Z"/><path class="cls-1" d="M10.9,182.82c5.2-.3,7.5,2.6,6.2,7.8,0,.1-.1.3-.1.4.4,5,.8,10,1.2,15.1.1.8.7,1.7.6,2.4-1.3,6.9,1.4,12.8,4.8,18.5,1.5,2.6.9,5-1.6,6.7a61.64,61.64,0,0,1-7.1,4c-1.9.9-3.5.7-4-2-.9-5.5-2.2-11-3.1-16.6-.8-4.8-1.2-9.7-1.7-14.6s-1-9.8-1.4-14.6C4.1,183.82,4.8,183.12,10.9,182.82Z"/><path class="cls-1" d="M63.6,59c3.5,0,2.4,4.8,3,6.8.9,3,.7,5.4-2,8-5.3,5-11.7,9.2-14.9,16.1-.4.8-.5,1.8-.9,2.7-.5,1.1-1,2.6-1.9,3-3.5,1.6-5.6,3.6-6.5,7.6-.5,2.2-1.6,5.7-5.3,5-3.3-.7-5.7-5.7-4.5-8.9.5-1.4,1.1-3.1,2.2-4,6-4.8,9.1-11.5,12.1-18.2a3.9,3.9,0,0,1,2-2c5.1-1.5,7.3-5.9,10.1-9.7C58.7,63.12,60.1,59,63.6,59Z"/><path class="cls-1" d="M45.6,295.52c-2.5-1.6-5.5-2.7-7.5-4.8-1.9-1.9-2.7-4.8-4.1-7.2-2-3.5-4.4-6.9-6.2-10.5a113,113,0,0,1-6.1-14.4c-.3-.9,2.6-3.3,4.4-4.2,1.5-.7,4.5-.8,5.1,0,2.3,3.3,3.9,7.1,5.9,10.7,2.3,4,4.7,7.8,7.1,11.8.2.3.9.6.9.9-.4,4.2,3,6,5.2,8.6s2.2,4.7-.6,6.9C48.2,294.22,45.5,296,45.6,295.52Z"/><path class="cls-1" d="M109.9,322.32c-.4,6.9-3.5,9.1-8.7,7.5-5.8-1.7-11.7-3.2-17.4-5.3-4.3-1.6-8.1-4.9-12.5-6-4-1-5.6-3.4-7.4-6.3-2.2-3.3.3-5.3,2.4-6.7,1.1-.8,3.6-.3,5.2.3,5.7,2.3,11.2,4.9,16.8,7.4.5.2,1.2.2,1.6.5a30.21,30.21,0,0,0,12.6,5.4,15.34,15.34,0,0,1,4.3,1.3A28.06,28.06,0,0,1,109.9,322.32Z"/><path class="cls-1" d="M4.5,164.12c0-3.2,2.5-10.6,4.2-16.6.7-2.6.6-5.3,1.4-7.9,1.8-5.9,3.7-11.8,8.1-16.4a4.84,4.84,0,0,1,4.3-1.2c2.2.7,4,7.1,3,9.4-.6,1.3-1.5,2.5-2,3.8-.9,2.5-3.2,4.7-1.5,7.9.5,1-.9,3.1-1.6,4.6-1.9,3.9-3.2,7.8-2.2,12.3.2,1.1-1,3.3-2,3.6C12.1,164.82,4.5,167.32,4.5,164.12Z"/><path class="cls-1" d="M331.4,212.72c6.5,1.3,8.4,5.2,6.2,10.2-2.5,5.5-4.5,11.1-7,16.6a69,69,0,0,1-4.5,8.5c-2.9,4.7-7,8.7-7.6,14.7,0,.5-1,1.2-1,1.2-1.8-1.3-3.9-2.4-5.2-4.2-.8-1.1-.6-4.4-.1-4.5,2.6-.8,2.7-2.6,3.2-4.8.4-1.9,3.2-3.2,3.5-5.1.7-4.9,2.9-8.7,5.9-12.5,1.3-1.6,1.2-4.3,2-6.4C328.2,221.82,329.8,217.22,331.4,212.72Z"/><path class="cls-1" d="M194.9,336.82c-3-1.3.3-5.1,1.6-7.4.6-1.1,3.7-.8,5.6-1.4,3.3-1.1,6.4-2.5,9.7-3.4,3.7-1,7.5-2.2,11.3-2.4,5.1-.2,8.8-2.7,12.6-5.5,1.6-1.2,3.9-1.5,5.9-2.3.5,2.1,1.6,4.2,1.4,6.2-.2,2.6-2.1,3.8-5,4.1a16,16,0,0,0-7.5,3.1c-3.4,2.6-7.2,3.3-11.3,4-3.6.6-7,2.7-10.5,4.1-.7.3-1.4.9-2.1.9C203.1,336.82,197.9,338,194.9,336.82Z"/><path class="cls-1" d="M137.5,338.42a23.2,23.2,0,0,1-3.8-.5c-1.9-.6-5.5.6-5.2-2.9.3-3,.4-6.9,5.1-7.1,2.5-.1,5.4-.9,7.5.1,8.1,3.7,16.5,1.7,24.8,1.7,3.2,0,6.2-.2,6.6,3.9s-2.5,7.4-6.7,6.7c-6.2-1-12.6.9-18.7-1.9-2.6-1.2-6.3-.2-9.5-.2A.31.31,0,0,0,137.5,338.42Z"/><path class="cls-1" d="M286.1,294.82c-5.7,3.2-10.4,8.2-15.6,12.4-1.7,1.4-3.5,3-5.6,3.7-1.7.6-5.4.5-5.5,0-.8-2.8-1.5-6,1.7-8,4.7-3.1,9.6-6,14.2-9.3a112.65,112.65,0,0,0,11.7-8.9c2.5-2.2,4.3-5.1,6.2-7.9,1.6-2.3,3.3-2.6,5.4-1s1.8,3.4.2,5.2c-2,2.2-4.1,4.3-6.2,6.5C292.2,287.32,289.7,292.72,286.1,294.82Z"/><path class="cls-1" d="M106.3,23.12c1.9,0,2.3,3.9,3.2,5.5,1.5,2.8.7,3.7-2.3,5.2-4.6,2.2-8.6,5.8-12.7,8.9-3.5,2.6-6.8,5.4-10.4,7.9-.6.4-2.9-.2-3.1-.7-.7-2.1-1.8-4.8-1.1-6.7.8-2.3,3.2-4.2,5-6.1,1.1-1.1,2.6-3,3.6-2.8,4.9.9,6.4-3,9.1-5.5C99.9,26.72,104.4,23.12,106.3,23.12Z"/><path class="cls-1" d="M150.2,12.82c-5.5,2.1-11.1,4.3-16.6,6.4-1.3.5-2.6,1.5-3.9,1.6a4.83,4.83,0,0,1-3.6-1c-.8-.9-1.6-3.1-1.1-3.7,1.5-2,3.4-4.3,5.6-5.2,6.7-2.7,13.6-4.8,20.5-6.9a50.33,50.33,0,0,1,8.6-1.7c.6-.1,1.8.8,1.8,1.3.1,1.6.5,4-.4,4.7C158,10.62,150.4,13.42,150.2,12.82Z"/><path class="cls-1" d="M260.3,141c.9,7,2.6,14,2.5,21a97.71,97.71,0,0,1-2.7,22.2,227.36,227.36,0,0,1-8.3,26.6,34.63,34.63,0,0,1-6.7,10.6c-5.2,6.1-10.3,12.6-16.5,17.6-9.8,7.9-20.4,15.1-33,17.8a81.78,81.78,0,0,1-28.8,1.4c-13.1-1.9-24.7-7.5-34.7-15.2a108.83,108.83,0,0,1-22.9-24.5c-5.4-8-8.2-17.9-11.5-27.2-1.4-3.8-1.5-8.1-1.7-12.2-.5-7.6-1-15.2-.8-22.8a68.88,68.88,0,0,1,8.3-30.8c6.2-11.4,14.4-20.5,26.3-25.4,7.7-3.2,16.2-4.5,24.2-6.7a81.2,81.2,0,0,1,21.4-2.9c9.3,0,18.5.3,27.8,2,14.1,2.6,25.7,9.4,36.3,18.3,5.1,4.3,9.1,10,13.7,15.1,1.3,1.5,2.9,2.8,3.8,4.5C258.7,133.62,260.6,140.82,260.3,141Zm-78.8-44.1c-12.5-1-24.8,1.7-37,5.2-1.8.5-3.5,1.3-5.2,1.7-8.7,2.1-16.1,6.1-21.4,13.4a96.21,96.21,0,0,0-8.4,12.7c-5.1,9.8-8.1,20.3-7.4,31.5.2,4.1,1.1,8.1,1.3,12.2.2,5-.8,10.1.3,14.8,1.5,6.6,4.5,12.8,7,19.2,1,2.6,2,5.4,3.7,7.4,5,6.1,10.4,11.9,15.6,17.9,6.2,7.3,14.6,11.3,22.8,15.3,10,5,21.2,5.5,32.1,4.5,6.5-.6,13.5-1.8,19.2-4.9,11.1-5.9,21.7-13,29.9-22.8,3.8-4.6,8.5-9,10.8-14.4,4-9.1,6.7-18.9,9.6-28.5,2.4-8.2,3.4-16.6,1.7-25.2-1.1-5.5-2.3-11.2-2.5-16.8a16.87,16.87,0,0,0-4.6-11.9c-4.4-4.7-8.7-9.8-13.7-13.9s-10.6-8.3-16.5-10.9C207.1,98.62,194.8,95.92,181.5,96.92Z"/><path class="cls-2" d="M12.1,450.62H0v-47.9H11.7v8.2c2.2-5.6,8.4-9.3,15.9-9.3,11.5,0,17.9,8.4,17.9,20.3v28.7H33.4v-26.7c0-6.8-3.1-11.8-10.3-11.8-6.6,0-11.1,4.8-11.1,11.7v26.8Z"/><path class="cls-2" d="M62.6,426.72c0-13,9.8-25.1,26.3-25.1s26.3,12.1,26.3,25.1-9.8,25-26.3,25S62.6,439.72,62.6,426.72Zm11.8,0c0,7.8,5.2,15,14.5,15s14.5-7.2,14.5-15-5.2-15.1-14.5-15.1S74.4,419,74.4,426.72Z"/><path class="cls-2" d="M144.7,450.62H132.6v-47.9h11.7v8.2c2.2-5.6,8.1-9.3,15.5-9.3s12.6,3.5,15.3,9.3c3.6-5.9,9.6-9.3,17.4-9.3,11.5,0,17.5,8.4,17.5,20.3v28.7H197.9v-26.7c0-6.8-2.6-11.8-9.8-11.8-6.5,0-10.7,4.6-10.7,11.2v27.2H165.3v-26.7c0-6.8-2.6-11.8-9.8-11.8-6.6,0-10.7,4.8-10.7,11.7v26.9Z"/><path class="cls-2" d="M280.1,402.82v47.9H268.5v-8.3c-2.8,4.9-9.1,9.4-17.5,9.4-14.2,0-24.2-11.3-24.2-25s10-25.1,24.2-25.1c8.3,0,14.9,4.3,17.3,9.4v-8.3Zm-26.8,39c8,0,14.7-5.9,14.7-15.1s-6.7-15.2-14.7-15.2c-8.6,0-14.4,6.8-14.4,15.2S244.7,441.82,253.3,441.82Z"/><path class="cls-2" d="M338.7,380.62h12.1v70H339.2v-8.3c-2.8,4.9-9.1,9.4-17.5,9.4-14.2,0-24.2-11.3-24.2-25s10-25.1,24.2-25.1c8.3,0,14.6,4.3,17,9.4ZM324,441.82c8,0,14.7-5.9,14.7-15.1s-6.7-15.2-14.7-15.2c-8.6,0-14.4,6.8-14.4,15.2S315.4,441.82,324,441.82Z"/></g></g></svg>